<?xml version="1.0" encoding="UTF-8"?><svg xmlns="http://www.w3.org/2000/svg" viewBox="0 0 550 550"><defs><style>.cls-1{fill:#acd7f3;}.cls-2{fill:#fff;}</style></defs><g id="Layer_2"><rect class="cls-1" width="550" height="550" rx="75.06" ry="75.06"/></g><g id="Layer_1"><g><path d="M391.36,122.39c8.28,.12,16.55,.26,24.83,.35,11.68,.13,21.51,4.03,28.54,13.79,3.91,5.43,5.9,11.54,5.9,18.17,.04,69.82-.02,139.63,.07,209.45,0,3.42-1.06,5.8-3.42,8.18-24.06,24.26-48.04,48.61-72.04,72.94-8.54,8.66-17.15,17.26-25.52,26.09-2.54,2.68-5.17,3.65-8.82,3.65-67.87-.11-135.75-.08-203.62-.17-4.88,0-9.98,.07-14.61-1.23-14.39-4.05-23.37-16.66-23.37-31.64,.02-94.43,.06-188.86,0-283.28,0-6.74,.75-13.2,4.14-19.1,6.62-11.53,16.95-16.64,29.95-16.82,7.51-.1,15.03-.02,22.54-.01,1.53,0,3.06,0,4.92,0,.11-1.94,.27-3.46,.28-4.98,.02-8.94-.03-17.88,.02-26.81,.05-8.96,7.06-15.91,16.06-15.89,2.83,0,5.78-.1,8.46,.63,6.71,1.83,11.28,8.03,11.37,15.02,.13,10.62,.1,21.24,.14,31.86-10.6,.1-21.21,.31-31.81,.21-3.28-.03-4.19,1.07-4.14,4.24,.16,10.35,.04,20.71,.06,31.07,.02,8.88,6.82,15.93,15.83,16.46,10.65,.63,18.88-4.83,19.41-14.09,.72-12.63,.41-25.33,.54-38,1.28,.09,2.57,.26,3.85,.26,49.72,.01,99.44,.01,149.15,.01q5.23,0,5.23-5.38c0-8.29-.04-16.57,.04-24.86,.1-10.01,6.64-17.33,15.51-17.5,13.21-.26,20.52,5.43,20.81,16.84,.26,10.21-.12,20.44-.21,30.66-10.46,.12-20.93,.37-31.39,.27-3.37-.03-4.53,.91-4.47,4.36,.19,10.22,.08,20.44,.07,30.66,0,9.1,6.76,16.22,15.93,16.74,10.73,.61,19.22-5.43,19.6-14.93,.5-12.39,.13-24.82,.14-37.23Zm-133.51,66.27v.02c-45.33,0-90.67,0-136,0-7.71,0-7.43-1.08-7.43,7.25,0,80.05,.01,160.09,.03,240.14,0,3.24,0,6.48,.18,9.7,.27,4.8,2.7,8.64,6.92,10.5,3.68,1.62,7.9,2.83,11.88,2.84,68.26,.17,136.52,.09,204.78,.22,4.02,0,5.03-1.18,5-5.04-.17-18.52-.08-37.04-.08-55.57,0-18.2,10.86-28.98,29.07-28.96,19.3,.03,38.6-.05,57.9,.07,3.36,.02,4.82-.66,4.81-4.46-.11-57.64-.1-115.28-.01-172.92,0-3.49-1.26-4.43-4.56-4.34-11.9,.3-23.82,.5-35.72,.51-45.59,.05-91.19,.02-136.78,.02Z"/><path class="cls-2" d="M257.85,188.66c45.59,0,91.19,.03,136.78-.02,11.91-.01,23.82-.21,35.72-.51,3.3-.08,4.56,.86,4.56,4.34-.09,57.64-.1,115.28,.01,172.92,0,3.8-1.45,4.49-4.81,4.46-19.3-.12-38.6-.04-57.9-.07-18.21-.03-29.07,10.76-29.07,28.96,0,18.52-.1,37.05,.08,55.57,.04,3.86-.98,5.05-5,5.04-68.26-.13-136.52-.05-204.78-.22-3.98,0-8.2-1.22-11.88-2.84-4.23-1.86-6.65-5.7-6.92-10.5-.18-3.23-.18-6.47-.18-9.7-.02-80.05-.04-160.09-.03-240.14,0-8.33-.28-7.25,7.43-7.25,45.33,0,90.67,0,136,0v-.02Zm-86.32,37.38c-8.42,0-16.84,.07-25.25-.04-2.69-.04-3.67,.92-3.66,3.6,.07,16.58,.06,33.15,0,49.73-.01,2.63,.89,3.69,3.62,3.68,16.58-.08,33.16-.08,49.73,.02,2.76,.02,3.61-1.03,3.6-3.64-.06-16.58-.07-33.16,.02-49.73,.02-2.98-1.2-3.72-3.96-3.67-8.03,.14-16.06,.05-24.09,.05Zm68.81-1.56c-8.16,0-16.31,.12-24.46-.06-3.06-.07-4.07,.94-4.05,3.99,.1,16.31,.09,32.62,0,48.93-.02,2.99,1,4.11,4.06,4.09,16.31-.1,32.62-.11,48.93,.02,3.12,.02,4.03-1.15,4.02-4.09-.08-16.44-.07-32.88,0-49.32,.01-2.68-.94-3.64-3.64-3.6-8.28,.12-16.57,.04-24.85,.05Zm68.82,125.94c8.41,0,16.82-.06,25.24,.03,2.56,.03,3.8-.76,3.79-3.52-.06-16.69-.05-33.39,0-50.08,0-2.52-1.03-3.39-3.5-3.38-16.57,.05-33.13,.06-49.7-.04-2.94-.02-3.79,1.16-3.77,3.93,.08,16.44,.09,32.87,.02,49.31-.01,2.79,.9,3.88,3.83,3.82,8.02-.17,16.05-.06,24.07-.06Zm-69.08,.71h0c8.16-.01,16.31-.13,24.47,.04,3.14,.07,4.34-.86,4.31-4.14-.13-16.18-.11-32.36,0-48.55,.02-3.09-.83-4.37-4.16-4.34-16.18,.14-32.36,.12-48.55,.03-3.1-.02-4.37,.86-4.35,4.18,.14,16.18,.16,32.36,0,48.55-.04,3.58,1.36,4.36,4.59,4.29,7.89-.18,15.79-.06,23.69-.06Zm-1.26,70.26c8.16,0,16.31-.09,24.47,.05,2.81,.05,3.91-.78,3.89-3.72-.1-16.44-.1-32.88,.02-49.33,.02-3.09-1.1-3.99-4.1-3.97-16.18,.11-32.37,.11-48.55-.01-3.15-.02-4.31,.9-4.29,4.17,.13,16.31,.13,32.63,0,48.94-.03,3.18,1.18,3.96,4.1,3.91,8.15-.14,16.31-.05,24.47-.05Zm-40.89-27.05h-.03c0-8.29-.06-16.58,.03-24.87,.03-2.52-.56-3.77-3.44-3.75-16.58,.1-33.16,.08-49.74,0-2.59-.01-3.35,1.01-3.34,3.46,.06,16.58,.07,33.16,0,49.74-.01,2.86,1.01,3.83,3.88,3.81,16.19-.1,32.38-.14,48.57,.02,3.38,.03,4.17-1.28,4.12-4.32-.13-8.03-.05-16.06-.05-24.09Zm209-140.38h.04c0-8.16-.09-16.32,.05-24.47,.05-3.1-.9-4.36-4.2-4.33-16.19,.13-32.37,.13-48.56,0-3.35-.03-4.17,1.3-4.15,4.39,.1,16.19,.1,32.37,0,48.56-.02,3.03,.97,4.09,4.03,4.07,16.32-.11,32.63-.12,48.95,0,3.18,.02,3.96-1.2,3.9-4.14-.16-8.03-.05-16.06-.05-24.08Zm-28.58,41.12c-8.03,0-16.07,.1-24.1-.05-2.95-.06-4.18,.8-4.16,3.93,.1,16.32,.08,32.65,0,48.97-.01,2.91,.88,4.16,4.02,4.13,16.32-.12,32.65-.12,48.97-.01,2.86,.02,3.92-.94,3.91-3.79-.07-16.45-.09-32.91,.02-49.36,.02-3.16-1.26-3.94-4.18-3.88-8.16,.15-16.32,.05-24.49,.05Zm-68.94-14.62h0c8.16,.01,16.32-.11,24.48,.07,3.19,.07,4.36-.96,4.34-4.19-.1-16.06-.07-32.13,.02-48.19,.02-2.94-.9-4.16-4-4.14-16.45,.08-32.9,.03-49.35-.08-2.74-.02-3.64,1.05-3.63,3.67,.06,16.45,.08,32.9,0,49.35-.01,2.72,.99,3.59,3.66,3.55,8.16-.13,16.32-.05,24.48-.05Zm-138.22,72.3c8.02,0,16.04-.1,24.06,.05,3.04,.06,4.39-.68,4.36-4.07-.15-16.3-.12-32.6-.02-48.9,.02-3.04-1.03-4.05-4.06-4.03-16.17,.11-32.34,.12-48.51-.01-3.44-.03-4.45,1.2-4.43,4.53,.13,16.04,.16,32.08,0,48.12-.03,3.52,1.26,4.43,4.54,4.36,8.02-.17,16.04-.06,24.06-.06Z"/><path class="cls-2" d="M197.07,122.47c-.13,12.67,.18,25.36-.54,38-.53,9.26-8.76,14.72-19.41,14.09-9.01-.53-15.81-7.57-15.83-16.46-.02-10.36,.1-20.71-.06-31.07-.05-3.17,.87-4.27,4.14-4.24,10.6,.1,21.21-.12,31.81-.21l-.11-.11Z"/><path class="cls-2" d="M391.36,122.39c0,12.41,.36,24.84-.14,37.23-.38,9.5-8.87,15.54-19.6,14.93-9.17-.52-15.94-7.64-15.93-16.74,0-10.22,.12-20.45-.07-30.66-.07-3.46,1.1-4.39,4.47-4.36,10.46,.1,20.93-.15,31.39-.27,0,0-.11-.13-.11-.13Z"/><path d="M171.53,226.04c8.03,0,16.06,.09,24.09-.05,2.76-.05,3.98,.69,3.96,3.67-.1,16.58-.08,33.16-.02,49.73,0,2.61-.84,3.65-3.6,3.64-16.58-.1-33.16-.1-49.73-.02-2.73,.01-3.63-1.05-3.62-3.68,.06-16.58,.07-33.16,0-49.73-.01-2.68,.98-3.64,3.66-3.6,8.42,.12,16.84,.04,25.25,.04Z"/><path d="M240.34,224.48c8.28,0,16.57,.08,24.85-.05,2.7-.04,3.65,.92,3.64,3.6-.08,16.44-.08,32.88,0,49.32,.01,2.94-.89,4.12-4.02,4.09-16.31-.13-32.62-.12-48.93-.02-3.06,.02-4.08-1.1-4.06-4.09,.09-16.31,.11-32.62,0-48.93-.02-3.05,.99-4.06,4.05-3.99,8.15,.18,16.31,.06,24.46,.06Z"/><path d="M309.16,350.42c-8.02,0-16.05-.11-24.07,.06-2.93,.06-3.85-1.02-3.83-3.82,.06-16.44,.06-32.87-.02-49.31-.01-2.77,.83-3.95,3.77-3.93,16.56,.1,33.13,.09,49.7,.04,2.47,0,3.51,.86,3.5,3.38-.05,16.69-.07,33.39,0,50.08,0,2.77-1.23,3.55-3.79,3.52-8.41-.09-16.82-.03-25.24-.03Z"/><path d="M240.08,351.13c-7.9,0-15.8-.12-23.69,.06-3.23,.07-4.63-.7-4.59-4.29,.16-16.18,.14-32.36,0-48.55-.03-3.32,1.25-4.2,4.35-4.18,16.18,.1,32.36,.11,48.55-.03,3.33-.03,4.18,1.24,4.16,4.34-.11,16.18-.12,32.36,0,48.55,.03,3.29-1.17,4.21-4.31,4.14-8.15-.17-16.31-.06-24.47-.06h0Z"/><path d="M238.82,421.4c-8.16,0-16.31-.09-24.47,.05-2.91,.05-4.12-.73-4.1-3.91,.14-16.31,.14-32.63,0-48.94-.03-3.28,1.14-4.2,4.29-4.17,16.18,.12,32.37,.12,48.55,.01,3-.02,4.12,.88,4.1,3.97-.11,16.44-.11,32.88-.02,49.33,.02,2.94-1.08,3.77-3.89,3.72-8.15-.15-16.31-.05-24.47-.05Z"/><path d="M197.93,394.34c0,8.03-.09,16.06,.05,24.09,.05,3.04-.74,4.35-4.12,4.32-16.19-.16-32.38-.12-48.57-.02-2.87,.02-3.89-.95-3.88-3.81,.08-16.58,.07-33.16,0-49.74,0-2.45,.75-3.48,3.34-3.46,16.58,.08,33.16,.1,49.74,0,2.88-.02,3.47,1.23,3.44,3.75-.09,8.29-.03,16.58-.03,24.87h.03Z"/><path d="M406.92,253.96c0,8.03-.1,16.06,.05,24.08,.06,2.94-.72,4.16-3.9,4.14-16.32-.12-32.63-.11-48.95,0-3.06,.02-4.05-1.05-4.03-4.07,.11-16.19,.11-32.37,0-48.56-.02-3.09,.81-4.41,4.15-4.39,16.19,.13,32.37,.13,48.56,0,3.3-.03,4.25,1.23,4.2,4.33-.14,8.16-.05,16.32-.05,24.47h-.04Z"/><path d="M378.35,295.08c8.16,0,16.33,.1,24.49-.05,2.92-.05,4.2,.72,4.18,3.88-.11,16.45-.08,32.91-.02,49.36,.01,2.85-1.05,3.8-3.91,3.79-16.32-.1-32.65-.11-48.97,.01-3.14,.02-4.03-1.22-4.02-4.13,.07-16.32,.1-32.65,0-48.97-.02-3.13,1.21-3.99,4.16-3.93,8.03,.15,16.06,.05,24.1,.05Z"/><path d="M309.4,280.46c-8.16,0-16.32-.08-24.48,.05-2.67,.04-3.67-.83-3.66-3.55,.08-16.45,.06-32.9,0-49.35,0-2.62,.89-3.69,3.63-3.67,16.45,.11,32.9,.16,49.35,.08,3.11-.01,4.02,1.2,4,4.14-.1,16.06-.12,32.13-.02,48.19,.02,3.23-1.15,4.26-4.34,4.19-8.16-.18-16.32-.06-24.48-.06h0Z"/><path d="M171.19,352.76c-8.02,0-16.04-.12-24.06,.06-3.27,.07-4.57-.84-4.54-4.36,.16-16.04,.13-32.08,0-48.12-.03-3.33,.99-4.56,4.43-4.53,16.17,.14,32.34,.12,48.51,.01,3.03-.02,4.08,.99,4.06,4.03-.1,16.3-.13,32.6,.02,48.9,.03,3.4-1.31,4.13-4.36,4.07-8.02-.15-16.04-.05-24.06-.05Z"/></g></g></svg>