<?xml version="1.0" encoding="UTF-8"?><svg xmlns="http://www.w3.org/2000/svg" viewBox="0 0 642.9 575"><defs><style>.cls-1{fill:#fcda00;}</style></defs><g id="Layer_2"><rect class="cls-1" x="27.42" y="25" width="550" height="550" rx="75.06" ry="75.06"/></g><g id="Layer_1"><g><path d="M369.25,51.35c-3.85-2.26-5.18-6.12-6.08-10.11-1.28-5.69-2.72-11.38-3.37-17.16-.49-4.37-.5-8.96,1.98-13.04,.26-.43,.13-1.09,.27-1.62,.84-3.17,1.71-6.34,3.11-9.43,1.48,6.14-.6,12.24,.74,18.41,1.32,6.05,2.29,12.14,4.66,17.89,2.36,5.72,4.79,11.41,7.19,17.12l.92-.16c.04-.72,.29-1.5,.09-2.14-.75-2.5-1.64-4.95-2.48-7.42-.06-.17-.11-.35-.14-.54-.81-4.76-1.61-9.53-2.44-14.29-.43-2.47-.92-4.92-1.4-7.38-.9-4.7,1.08-9,1.92-13.45,.31-1.61,.78-3.19,1.61-4.86,.11,1.37,.37,2.76,.3,4.12-.33,6.77,1.2,13.31,2.51,19.86,1.17,5.86,2.19,11.9,4.5,17.34,1.59,3.74,1.77,8.03,4.73,11.42,1.8,2.07,2.07,5.47,3.03,8.28l.99-.11c0-1.69,.52-3.61-.09-5.05-2.83-6.69-3.92-13.57-2.85-20.84,.48,1.97,.72,4.04,1.48,5.9,2.12,5.26,2.82,10.85,4.18,16.28,.8,3.2,2.73,6.11,3.99,9.22,.88,2.18,1.35,4.53,2.23,6.71,1.9,4.72,3.93,9.38,5.94,14.06,1.96,4.57,3.8,9.21,6.01,13.66,1.54,3.09,3.8,5.8,5.41,8.86,1.67,3.17,2.88,6.57,4.41,9.81,.83,1.77,1.94,3.42,2.87,5.15,1.64,3.07,3.14,6.2,4.86,9.22,1.8,3.16,3.84,6.18,5.67,9.33,.58,1.01,1.14,2.2,1.17,3.33,.19,5.97,5.01,9.81,6.78,15.08,1.48,4.39,3.54,8.61,5.59,12.78,1.56,3.16,3.57,6.1,5.28,9.19,1.37,2.48,2.58,5.06,3.9,7.57,2.49,4.74,5.23,9.36,7.48,14.2,3.17,6.81,8.44,9.84,15.72,9.22,7.71-.66,15.56-.99,23.04-2.77,6.15-1.46,12.18-2.61,18.45-2.34,6.83,.29,13.68,.51,20.46,1.26,3.08,.34,6.09,1.76,8.99,3.02,.73,.32,.9,1.92,1.41,3.13-7.72,2.62-14.99,5.33-20.49,10.92-5.33,5.42-9.71,11.6-12.75,19.16,1.17,.2,2.03,.52,2.86,.46,4.6-.36,8.83,1.4,13.23,2.14,3.63,.61,7.4,.4,11.09,.65,2.01,.14,4,.52,6,.74,.73,.08,1.53,.21,2.2,0,4.75-1.47,9.42-.9,14.22-.06,3.24,.57,6.67-.02,9.99,.22,2.11,.15,4.15,.99,6.26,1.31,1.91,.29,3.87,.37,5.8,.4,4.44,.05,8.87,.02,13.4,.02,.35,3.51-2.51,3.91-4.27,4.86-2.58,1.39-5.65,1.89-8.23,3.28-2.71,1.46-5.07,3.55-7.61,5.32-2.99,2.09-6.04,4.1-9,6.22-1.06,.76-2.05,1.67-2.88,2.67-3.18,3.87-7.34,6.13-11.9,8.02-2.13,.89-3.69,3.12-5.81,4.1-2.59,1.19-5.52,1.6-8.23,2.56-1.38,.49-2.58,1.49-3.9,2.19-1.68,.89-3.34,2.27-5.11,2.45-4.55,.46-8.6,2.22-12.8,3.75-1.9,.7-4.23,.12-6.34,.38-1.1,.14-2.18,.76-3.19,1.31-3.7,1.99-7.36,4.07-11.08,6.03-.5,.26-1.38,.26-1.87-.01-2.67-1.48-4.72,.46-6.98,1.16-.76,.24-1.45,.9-2.2,.94-7.06,.42-14.13,.8-21.2,1.07-1.01,.04-2.03-.66-3.08-.85-1.54-.28-2.8-1.59-4.74-.34-2.24,1.45-4.12-.78-5.98-1.75-3.5-1.82-8.42-1.05-11.28,1.52-1.88,1.69-4.26,2.81-6.39,4.24-1.26,.85-2.35,2.03-3.71,2.63-2.14,.95-4.41,1.7-6.69,2.2-.76,.17-2.05-.45-2.56-1.12-1.28-1.65-2.69-1.44-3.62-.14-1.36,1.88-2.13,4.18-3.38,6.15-2.05,3.22-4.16,6.42-6.47,9.46-2.54,3.34-5.04,6.8-8.08,9.65-4.1,3.83-7.87,8.24-14.55,8.02-5.19-.17-10.67,.03-15.57,1.53-4.55,1.39-9.19,1.97-13.64,2.05-5.63,.11-11.31-1.66-16.96-2.66-.32-.06-.67-.32-.87-.59-4.54-6.07-9.99-11.7-8.35-20.44,.3-1.58-.89-3.95-2.14-5.22-3.09-3.13-2.32-6.56-.79-9.58,1.58-3.12,3.9-6,6.39-8.5,4.34-4.37,9.88-6.89,15.57-9.1,5.51-2.15,10.98-4.42,16.41-6.78,4.19-1.82,8.27-3.91,12.43-5.8,3.66-1.66,7.66-2.78,10.96-4.96,3.04-2,5.47-5,7.93-7.77,.94-1.06-1.64-5.8-3.17-6.26-6.1-1.85-8.41-4.75-8.79-11.12-.09-1.49-.57-2.34-2.07-3.11-3.87-1.98-7.38-4.45-7.86-9.39-.05-.57-.5-1.18-.92-1.62-2.88-2.96-5.84-5.85-8.67-8.85-.47-.5-.4-1.47-.66-2.19-.45-1.23-.63-3.04-1.52-3.55-2.38-1.35-2.74-3.62-3.59-5.76-.46-1.16-1.41-2.15-1.7-3.33-.88-3.6-2.79-6.52-5.06-9.41-1.5-1.91-2.33-4.41-3.15-6.76-.63-1.8-.56-3.84-1.18-5.64-.71-2.07-2.03-3.94-2.74-6.01-.79-2.33-1.16-4.81-1.78-7.2-.17-.66-.53-1.29-.9-1.87-3.18-5.09-5.01-10.66-5.84-16.57-.25-1.79,.29-3.29,1.87-4.58,.64-.53,.9-2.69,.39-3.27-3.87-4.4-5.61-9.28-5-15.2,.2-1.91-.76-4.05-1.56-5.93-1.5-3.53-3.32-6.92-4.86-10.44-.34-.78-.31-1.92-.03-2.75,1.92-5.62-1.77-9.96-3.29-14.77-.64-2.01-1.65-3.75,.3-5.7,1.48-1.48,1.86-3.33,1.14-5.59-1.36-4.29-3.21-8.57-2.38-13.25,.22-1.25,.98-2.39,1.27-3.63,.28-1.21,.8-2.77,.31-3.68-2.35-4.33-3.58-8.89-3.82-13.78-.04-.86-.74-1.68-.83-2.54-.17-1.74-.12-3.5-.16-5.25,1.68,.44,3.38,.8,5.02,1.34,.64,.21,1.15,.81,1.72,1.24l.98-.64c-.88-2.09-1.61-4.26-2.69-6.25-1.69-3.11-3.65-6.09-5.42-9.16-.24-.42,.02-1.11-.12-1.62-.4-1.44-.85-2.88-1.36-4.28-.93-2.53-1.91-5.03-2.88-7.55l.82-.74c.76,.38,1.74,.58,2.25,1.17,5.28,6.1,10.41,12.33,15.75,18.38,3.14,3.56,6.58,6.86,9.96,10.37,1.56-2.85-.05-4.98-.99-7.2-1.21-2.88-2.45-5.74-3.67-8.61-.07-.16,.03-.48-.07-.54-3.41-1.93-3.46-5.93-4.65-8.87-1.8-4.44-5.19-8.49-4.76-13.79,.18-2.23-.17-4.5,.1-6.84,3.4,2.12,5.28,5.08,6.89,8.39,2.09,4.31,4.63,8.41,6.94,12.62,1.72,3.12,3.26,6.36,5.12,9.39,2.34,3.8,4.81,7.53,7.52,11.07,.42,.55,2.42,.04,3.64-.23,.42-.09,.67-.95,1.02-1.49Z"/><path d="M620.64,239.16c-.49,1.6-.98,3.21-1.48,4.81l.79,.4c3.18-3.52,6.3-7.04,8.72-11.27,1.68-2.95,3.72-6.26,6.5-7.86,2.45-1.41,4.9-2.74,6.87-4.91l.64,.29c.05,1.01,.41,2.13,.1,3.02-1.06,3.05-2.05,6.2-3.66,8.97-1.58,2.72-2.32,6.24-6.07,7.42-1.14,.36-2.11,1.71-2.85,2.8-2.69,3.95-6.99,5.53-10.98,7.54-1.66,.84-3.51,1.55-5.34,1.77-2.22,.26-2.84-.95-1.59-2.8,2.16-3.2,4.42-6.33,6.66-9.47,.28-.39,.72-.66,1.08-.99l.61,.29Z"/></g><g><path d="M94.71,472.01c-1.05,.64-1.38,.95-1.77,1.05-.76,.2-1.74,.61-2.27,.3-.49-.28-.83-1.48-.65-2.11,.61-2.14,1.55-4.19,2.22-6.32,.34-1.09,.74-2.36,.48-3.39-.91-3.66,.61-7.12,4.11-8.53,3.59-1.44,7.19-2.88,10.84-4.15,4.09-1.43,8.24-2.69,12.37-3.98,4.15-1.3,8.35-2.44,12.45-3.88,4.41-1.54,8.71-3.38,13.09-5.03,2.86-1.08,5.8-1.96,8.6-3.16,.8-.34,1.9-1.73,1.72-2.28-.7-2.18-1.77-4.26-2.88-6.29-.45-.83-1.37-1.39-2.03-2.12-2.02-2.24-3.28-4.75-2.82-7.9,.07-.5-.13-1.16-.45-1.56-3.01-3.83-6.14-7.56-9.06-11.45-.99-1.32-1.86-2.98-2.04-4.57-.24-2.03-.91-3.37-2.43-4.8-2.12-2-4.33-3.89-4.96-7.36-.44-2.4-3.03-4.43-4.74-6.56-2.03-2.54-3.95-5.22-6.29-7.45-1.39-1.32-3.55-2.73-5.28-2.64-3.86,.2-6.48-1.89-9.41-3.62-.67-.4-1.39-.93-2.12-.98-4.34-.33-8.23-1.79-12.09-3.79-2.55-1.32-5.59-1.67-8.38-2.56-2.05-.65-4.03-1.5-6.06-2.21-.77-.27-1.59-.51-2.39-.52-7.62-.08-15.25-.26-22.87-.08-4.15,.09-8.32,.57-12.4,1.31-4.91,.89-9.7,2.49-14.62,3.32-3.52,.6-7.18,.45-10.77,.64l-.5-.97c.85-.73,1.69-1.46,3.07-2.65-.63-.44-1.39-1.4-2.15-1.42-2.01-.03-4.02,.46-6.04,.53-1.57,.05-3.15-.23-4.73-.36l-.16-1.3c5.07-2.33,10.09-4.81,15.24-6.96,6.48-2.7,13.06-5.16,19.62-7.68,1.92-.74,3.93-1.25,5.86-1.96,.66-.24,1.34-.69,1.74-1.24,.31-.43,.21-1.16,.29-1.76-.6-.07-1.26-.33-1.8-.19-2.43,.65-4.81,1.51-7.25,2.1-2.14,.51-4.34,.91-6.53,1.08-8.63,.68-17.26,1.3-25.9,1.8-.83,.05-1.71-.87-2.57-1.34,.71-.49,1.37-1.13,2.15-1.46,4.21-1.76,8.4-3.61,12.71-5.09,3.19-1.09,6.56-1.68,9.86-2.46,5.94-1.41,11.89-2.79,17.83-4.2,.3-.07,.54-.37,1.61-1.15-2.65-.52-4.53-1.16-6.43-1.22-6.5-.2-13.02-.19-19.52-.28-1.08-.01-2.15-.11-3.39-.18,.75-3.13,3.32-3,5.26-3.51,5.03-1.3,10.12-2.36,15.18-3.51,.62-.14,1.23-.36,1.86-.47,7.19-1.28,14.36-2.64,21.57-3.78,2.56-.41,5.24-.03,7.78-.48,3.44-.61,6.81-1.68,10.11-3.18-4.79-.76-9.59-1.52-14.38-2.28l-.07-.59c1.15-.35,2.36-.59,3.45-1.08,4.59-2.04,9.53-2.85,14.39-3.05,17.25-.71,34.52-1.05,51.78-1.38,2.83-.05,5.68,.62,8.52,.94,.55,.06,1.11,.08,1.67,.08,6.26,.03,12.53-.13,18.79,.12,4.23,.17,8.49,.67,12.65,1.44,5.56,1.03,11.06,2.38,16.55,3.74,8.57,2.12,15.37,6.77,19.55,14.68,1,1.9,1.01,4.29,1.76,6.35,1.72,4.79,3.46,9.58,5.46,14.27,1.96,4.61,3.71,9.45,6.53,13.52,3.67,5.32,6.69,11.37,12.77,14.71,3.96,2.17,7.71,.93,11.49-.37,1.4-.48,2.83-.95,4.13-1.66,4.25-2.32,9.02-3.18,13.44-4.9,5.47-2.14,11.03-2.46,16.65-2.55,4.12-.07,8.25,.87,12.38,.88,3.67,0,7.35-.67,11.03-.98,1.11-.09,2.38-.3,3.31,.13,1.54,.71,3.93,1.81,4.01,2.89,.11,1.49-1.24,3.62-2.6,4.57-4.15,2.91-8.77,5.15-12.86,8.12-2.11,1.53-3.59,4-5.15,6.19-1.6,2.25-3.06,4.62-4.33,7.07-.52,1.01-.37,2.37-.53,3.57,1.07,.06,2.23,.42,3.18,.13,3.9-1.21,7.74-2.62,11.61-3.94,2.96-1.01,5.89-1.41,8.79,.26,.62,.36,1.4,.55,2.12,.62,4.66,.48,6.82,3.31,7.56,7.7,.98,5.79,2.39,11.51,3.05,17.33,.31,2.69-.74,5.53-1.14,8.31-.12,.82-.12,1.66-.13,2.5-.07,9.2,.14,18.42-.29,27.61-.26,5.68-1.19,11.38-2.41,16.94-.81,3.69-2.74,7.13-4.02,10.73-.97,2.74-1.69,5.57-2.55,8.35-.12,.37-.45,.67-1.3,.91,0-1.11-.16-2.25,.04-3.32,.34-1.84,1.02-3.61,1.33-5.45,.73-4.27,1.46-8.55,1.91-12.86,.28-2.65,.05-5.35,.05-8.46-.72,.4-1.47,.56-1.62,.95-1.02,2.61-1.97,5.25-2.84,7.92-1.29,3.94-2.63,7.87-3.69,11.87-1.61,6.07-2.95,12.22-4.5,18.31-.69,2.71-1.66,5.35-2.37,8.05-.53,2.04-.86,4.13-1.25,6.2-1.04,5.46-1.99,10.95-3.16,16.39-.53,2.47-1.62,4.81-2.25,7.26-.61,2.4-1.01,4.85-1.39,7.3-.46,2.92-.65,5.88-1.24,8.77-.46,2.28-1.34,4.47-2.61,6.97-.37-.98-1.08-1.97-1.05-2.93,.25-8.53,.57-17.05,1-25.57,.12-2.47,.61-4.93,1.03-7.37,.13-.76,.73-1.42,.91-2.18,.37-1.53,.59-3.09,.88-4.64l-1.43-.33c-.79,2.51-1.61,5.02-2.37,7.54-1.18,3.88-2.3,7.77-3.47,11.64-1.15,3.81-2.25,7.63-3.49,11.4-.99,2.99-2.09,5.94-3.28,8.85-.87,2.14,0,4.91-2.33,6.51-.54,.37-1.09,.72-1.91,1.26-.75-6.08,0-11.53,1.38-16.93,.66-2.61,1.51-5.18,2.07-7.82,.26-1.24,.05-2.58,.05-3.88-.4-.06-.8-.11-1.2-.17-2.7,7.43-5.4,14.87-8.1,22.3-2.47-3.62-2.46-7.1-1.56-10.8,.76-3.11,.96-6.35,1.51-9.52,.62-3.58,1.62-7.12,1.99-10.72,.42-4.02,.38-8.09,.42-12.14,.01-1.28-.47-2.55-.53-3.83-.25-5.59-2.56-10.41-5.23-15.17-1.14-2.02-1.57-4.43-2.7-6.46-1.19-2.14-2.97-3.96-4.23-6.07-.98-1.63-1.68-3.46-2.28-5.27-1.48-4.47-2.42-9.18-4.43-13.38-.92-1.93-3.75-3.1-5.92-4.23-2.1-1.1-4.41-1.94-6.73-2.47-1.3-.3-2.8,.27-4.22,.45-.83,.11-1.84,.58-2.45,.27-3.5-1.78-16.1-1.43-19.44,.38-3.62,1.97-7.41,3.62-11.16,5.32-2.34,1.06-4.87,1.76-7.09,3.01-1.33,.75-2.53,2.1-3.27,3.46-1.08,1.98-1.56,4.28-2.53,6.32-.95,2-2.2,3.86-3.32,5.77-.36,.62-.83,1.18-1.13,1.83-3.14,6.77-7.05,13.07-12.5,18.19-3.07,2.89-6.66,4.9-11.33,5.02-2.79,.07-5.51,1.91-8.3,2.81-1.64,.53-3.39,.72-5.06,1.17-2.58,.7-5.14,1.49-7.71,2.25-.18,.05-.35,.14-.53,.16-3.64,.49-7.29,.93-10.93,1.46-3.42,.5-5.29-2.2-7.62-3.76-2.36-1.58-3.8-4.11-7.57-3.35-3,.61-6.33-.38-9.5-.72-.49-.05-1.32-.47-1.34-.77-.23-3.27-2.57-4.11-5.13-5.22-3.01-1.31-3.6-3.22-2.53-6.75,.81-2.65,.82-4.97-.1-7.73-1.12-3.38-.78-7.03,1.88-10.03,.46-.52,.39-1.52,.72-2.97Zm-43.99-150.71c2.64-.18,4.4-.1,6.08-.45,3.77-.77,4.52-2.27,3.13-5.77-.8-2.01-2.45-2.28-4.01-.67-1.17,1.2-2.45,2.3-3.52,3.57-.6,.71-.88,1.68-1.68,3.32Z"/><path d="M50.73,321.3c.81-1.63,1.09-2.61,1.68-3.32,1.07-1.27,2.35-2.38,3.52-3.57,1.56-1.6,3.22-1.33,4.01,.67,1.39,3.5,.64,5-3.13,5.77-1.68,.34-3.45,.27-6.08,.45Z"/></g></g></svg>